<svg width="16" height="15" viewBox="0 0 16 15" fill="none" xmlns="http://www.w3.org/2000/svg">
    <path fill-rule="evenodd" clip-rule="evenodd" d="M7.91794 0.261108C5.9746 0.261108 5.73071 0.269606 4.96744 0.30434C4.20566 0.339224 3.68569 0.459826 3.23071 0.636779C2.76008 0.819546 2.36085 1.06403 1.96312 1.46191C1.56509 1.85965 1.3206 2.25887 1.13724 2.72935C0.95984 3.18448 0.839089 3.70461 0.804802 4.46608C0.770663 5.22935 0.761719 5.47339 0.761719 7.41674C0.761719 9.36009 0.770365 9.60323 0.804951 10.3665C0.839983 11.1283 0.960586 11.6482 1.13739 12.1032C1.32031 12.5739 1.56479 12.9731 1.96267 13.3708C2.36026 13.7689 2.75948 14.0139 3.22981 14.1967C3.68509 14.3736 4.20522 14.4943 4.96684 14.5291C5.73011 14.5639 5.97385 14.5724 7.91705 14.5724C9.86055 14.5724 10.1037 14.5639 10.867 14.5291C11.6287 14.4943 12.1493 14.3736 12.6046 14.1967C13.0751 14.0139 13.4737 13.7689 13.8713 13.3708C14.2693 12.9731 14.5138 12.5739 14.6972 12.1034C14.8731 11.6482 14.9938 11.1281 15.0296 10.3666C15.0639 9.60338 15.0728 9.36009 15.0728 7.41674C15.0728 5.47339 15.0639 5.2295 15.0296 4.46623C14.9938 3.70446 14.8731 3.18448 14.6972 2.7295C14.5138 2.25887 14.2693 1.85965 13.8713 1.46191C13.4732 1.06388 13.0752 0.819397 12.6041 0.636779C12.148 0.459826 11.6277 0.339224 10.8659 0.30434C10.1026 0.269606 9.85966 0.261108 7.91571 0.261108H7.91794ZM7.2761 1.55063C7.46662 1.55033 7.6792 1.55063 7.91802 1.55063C9.82857 1.55063 10.055 1.55749 10.8095 1.59177C11.5072 1.62368 11.8858 1.74025 12.1381 1.8382C12.472 1.96789 12.7101 2.12293 12.9604 2.37338C13.2108 2.62382 13.3658 2.86235 13.4958 3.19627C13.5938 3.44821 13.7105 3.82686 13.7423 4.52454C13.7765 5.27886 13.784 5.50546 13.784 7.41512C13.784 9.32477 13.7765 9.55137 13.7423 10.3057C13.7104 11.0034 13.5938 11.382 13.4958 11.634C13.3661 11.9679 13.2108 12.2057 12.9604 12.456C12.7099 12.7064 12.4721 12.8614 12.1381 12.9911C11.8861 13.0895 11.5072 13.2058 10.8095 13.2377C10.0552 13.272 9.82857 13.2795 7.91802 13.2795C6.00732 13.2795 5.78087 13.272 5.02655 13.2377C4.32887 13.2055 3.95022 13.0889 3.69784 12.991C3.36391 12.8613 3.12539 12.7063 2.87494 12.4558C2.62449 12.2054 2.46945 11.9674 2.33946 11.6334C2.24152 11.3814 2.12479 11.0028 2.09304 10.3051C2.05875 9.55077 2.05189 9.32418 2.05189 7.41333C2.05189 5.50247 2.05875 5.27707 2.09304 4.52275C2.12494 3.82508 2.24152 3.44642 2.33946 3.19419C2.46916 2.86026 2.62449 2.62174 2.87494 2.37129C3.12539 2.12084 3.36391 1.9658 3.69784 1.83581C3.95007 1.73742 4.32887 1.62114 5.02655 1.58909C5.68666 1.55928 5.94247 1.55033 7.2761 1.54884V1.55063ZM11.7375 2.73877C11.2635 2.73877 10.8789 3.12293 10.8789 3.59714C10.8789 4.0712 11.2635 4.45582 11.7375 4.45582C12.2116 4.45582 12.5962 4.0712 12.5962 3.59714C12.5962 3.12308 12.2116 2.73847 11.7375 2.73847V2.73877ZM7.91795 3.74204C5.88859 3.74204 4.24324 5.38739 4.24324 7.41676C4.24324 9.44612 5.88859 11.0907 7.91795 11.0907C9.94732 11.0907 11.5921 9.44612 11.5921 7.41676C11.5921 5.38739 9.94717 3.74204 7.9178 3.74204H7.91795ZM7.91792 5.03152C9.23516 5.03152 10.3031 6.09935 10.3031 7.41673C10.3031 8.73396 9.23516 9.80194 7.91792 9.80194C6.60054 9.80194 5.53271 8.73396 5.53271 7.41673C5.53271 6.09935 6.60054 5.03152 7.91792 5.03152Z" fill="black"/>
</svg>
