<svg width="15" height="9" viewBox="0 0 15 9" fill="none" xmlns="http://www.w3.org/2000/svg">
    <path fill-rule="evenodd" clip-rule="evenodd" d="M7.95212 8.81959C7.95212 8.81959 8.2104 8.79142 8.3427 8.65195C8.46379 8.52415 8.45959 8.28299 8.45959 8.28299C8.45959 8.28299 8.44349 7.15687 8.97616 6.9906C9.50113 6.82707 10.1752 8.07961 10.8905 8.56125C11.4309 8.9254 11.8411 8.8457 11.8411 8.8457L13.7527 8.81959C13.7527 8.81959 14.7522 8.75913 14.2783 7.98754C14.2391 7.92433 14.0018 7.41658 12.8574 6.3736C11.6584 5.28184 11.8194 5.45842 13.2627 3.56965C14.1418 2.41949 14.4932 1.71729 14.3833 1.41704C14.279 1.12984 13.6323 1.20611 13.6323 1.20611L11.4806 1.21916C11.4806 1.21916 11.321 1.19787 11.2027 1.26726C11.0872 1.33528 11.0123 1.49399 11.0123 1.49399C11.0123 1.49399 10.6722 2.38376 10.2179 3.14091C9.25964 4.73768 8.87676 4.82219 8.71997 4.72325C8.3553 4.4917 8.44629 3.79432 8.44629 3.29894C8.44629 1.75096 8.68568 1.1058 7.98082 0.938838C7.74703 0.883185 7.57484 0.84677 6.97638 0.840586C6.20853 0.833028 5.55897 0.843335 5.19079 1.01991C4.94581 1.1374 4.75682 1.39987 4.87231 1.41498C5.0144 1.43353 5.33638 1.50018 5.50717 1.72829C5.72766 2.02304 5.71996 2.68401 5.71996 2.68401C5.71996 2.68401 5.84665 4.50613 5.42388 4.73218C5.13409 4.88746 4.73652 4.57072 3.88187 3.12168C3.4444 2.37963 3.11402 1.55927 3.11402 1.55927C3.11402 1.55927 3.05032 1.40605 2.93623 1.3236C2.79834 1.22397 2.60585 1.19306 2.60585 1.19306L0.561275 1.20611C0.561275 1.20611 0.253994 1.21436 0.141301 1.34559C0.0412067 1.4617 0.133601 1.70287 0.133601 1.70287C0.133601 1.70287 1.7344 5.37941 3.54729 7.23245C5.20969 8.9309 7.09677 8.81959 7.09677 8.81959H7.95212Z" fill="white"/>
</svg>
