<svg width="16" height="11" viewBox="0 0 16 11" fill="none" xmlns="http://www.w3.org/2000/svg">
    <path fill-rule="evenodd" clip-rule="evenodd" d="M14.9403 2.1034C14.7757 1.47114 14.2907 0.973257 13.675 0.804283C12.559 0.497192 8.08378 0.497192 8.08378 0.497192C8.08378 0.497192 3.60855 0.497192 2.49252 0.804283C1.87674 0.973257 1.39179 1.47114 1.22721 2.1034C0.928223 3.24931 0.928223 5.64025 0.928223 5.64025C0.928223 5.64025 0.928223 8.03111 1.22721 9.17709C1.39179 9.80936 1.87674 10.3072 2.49252 10.4763C3.60855 10.7833 8.08378 10.7833 8.08378 10.7833C8.08378 10.7833 12.559 10.7833 13.675 10.4763C14.2907 10.3072 14.7757 9.80936 14.9403 9.17709C15.2393 8.03111 15.2393 5.64025 15.2393 5.64025C15.2393 5.64025 15.2393 3.24931 14.9403 2.1034Z" fill="white"/>
    <path fill-rule="evenodd" clip-rule="evenodd" d="M6.74194 8.10003V3.62781L10.3197 5.864L6.74194 8.10003Z" fill="#FF0000"/>
</svg>
